<svg width="200" height="200" viewBox="0 0 200 200" fill="none" xmlns="http://www.w3.org/2000/svg">
<path d="M76.9739 5.92276C78.0451 3.59481 81.3534 3.59482 82.4246 5.92276L146.763 145.746C147.678 147.734 146.226 150 144.038 150H15.3605C13.1726 150 11.7206 147.734 12.6351 145.746L76.9739 5.92276Z" fill="#E77CD8"/>
<path d="M134.122 38.531C135.197 36.2174 138.487 36.2174 139.562 38.531L189.556 146.062C190.48 148.051 189.028 150.327 186.835 150.327H86.8489C84.6559 150.327 83.204 148.051 84.1285 146.062L134.122 38.531Z" fill="#E77CD8"/>
<path d="M57.143 83.6601L46.6167 71.8954L49.6242 65.3595L57.143 75.817L79.6994 45.7516L97.7445 71.8954L108.271 62.7451L111.278 68.6275L97.7445 79.7386L79.6994 53.5948L57.143 83.6601Z" fill="#FFECEC"/>
<path d="M115.789 77.7778L106.767 97.3856L90.2256 132.68L81.203 150.327H75.188L84.2105 132.68L100.752 97.3856L112.03 76.4706L113.534 73.8562L115.789 77.7778L117.293 74.5098L137.594 88.8889L155.639 73.8562L157.895 77.7778L137.594 94.1176L115.789 77.7778Z" fill="white"/>
</svg>
