<svg xmlns="http://www.w3.org/2000/svg" viewBox="0 0 32 32">
  <path d="M8.6425781 4C7.1835781 4 6 5.181625 6 6.640625C6 8.099625 7.182625 9.3085938 8.640625 9.3085938C10.098625 9.3085938 11.283203 8.099625 11.283203 6.640625C11.283203 5.182625 10.101578 4 8.6425781 4 z M 21.535156 11C19.316156 11 18.0465 12.160453 17.4375 13.314453L17.373047 13.314453L17.373047 11.310547L13 11.310547L13 26L17.556641 26L17.556641 18.728516C17.556641 16.812516 17.701266 14.960938 20.072266 14.960938C22.409266 14.960937 22.443359 17.145609 22.443359 18.849609L22.443359 26L26.994141 26L27 26L27 17.931641C27 13.983641 26.151156 11 21.535156 11 z M 6.3632812 11.310547L6.3632812 26L10.923828 26L10.923828 11.310547L6.3632812 11.310547 z" fill="#747474" />
</svg>