<svg width="200" height="200" viewBox="0 0 200 200" fill="none" xmlns="http://www.w3.org/2000/svg">
<g filter="url(#filter0_i_2_36)">
<circle cx="100" cy="100" r="100" fill="#769BF8"/>
</g>
<g filter="url(#filter1_d_2_36)">
<path d="M38.938 21.8182L33.6283 26.3637C34.3654 34.526 35.3982 39.0909 39.823 45.4546C42.3024 49.4502 43.882 51.3955 46.9026 54.5455L50.4425 57.2727C57.297 61.1196 60.641 62.1153 66.1053 62.7273H90.2655H116.814C119.469 62.7273 122.572 62.8719 123.894 63.6364C128.147 65.7992 131.858 71.8182 131.858 75.6197V86.3637C131.744 89.7851 130.459 91.5264 128.319 93.6364C126.178 95.7464 121.239 99.0909 117.699 99.0909H78.761L66.3717 108.182L62.8318 111.818L59.292 116.364L58.4071 120C57.0386 124.681 56.7676 126.996 56.6371 130.909V143.636C56.9018 146.891 58.2984 151.25 60.177 153.636L64.6017 160C67.6798 163.437 69.6718 164.942 73.4513 167.273C75.8658 168.762 76.3516 169.152 78.761 170C81.2706 171.111 83.7177 171.485 86.7256 171.818H132.743C135.49 171.88 136.794 172.125 138.938 172.727C142.596 173.914 144.382 175.033 146.903 178.182L152.212 184.545L165.487 175.455L160.177 168.182L155.752 163.636L152.212 160.909C150.047 159.343 148.711 158.533 146.018 157.273L143.363 156.364C139.823 155.455 134.566 154.406 128.87 154.545H86.7256C81.8294 152.612 79.5142 151.032 76.1062 147.273C74.3552 145.086 73.6975 143.724 73.4513 140.909V134.545V127.273L75.2212 120L81.4159 116.364H90.2655H100.885H122.124L133.628 111.818L137.168 108.182L140.708 104.545L144.248 100L148.673 90.9091L149.558 86.3637V73.6364L147.788 68.1818L145.133 62.7273L142.478 59.0909L136.283 52.7273L128.319 47.2727L123.009 45.4546H92.0354H69.9115L61.9469 44.5455C60.0473 44.1262 58.193 42.6377 56.6371 40.9091C54.4786 38.5889 53.5542 37.1786 52.2124 34.5455C51.1538 32.5149 50.7646 31.3165 50.4425 29.0909L49.5575 14.5455L38.938 21.8182Z" fill="#EAC2CC"/>
</g>
<path d="M40.708 27.2727V20.9091L42.4779 19.0909V27.2727H40.708Z" fill="#FFFEFE"/>
<path d="M44.2478 39.0909H46.0177V41.8182V43.6363L47.7877 45.4545L49.5576 47.2727L50.4425 48.1818H52.2124H54.8673V49.0909V50H53.0974H50.4425L49.5576 49.0909L48.6726 48.1818L47.7877 47.2727L46.0177 45.4545L44.2478 43.6363V41.8182V39.0909Z" fill="#FFFEFE"/>
<path d="M67.2567 54.5454V52.7272H83.1859V54.5454H67.2567Z" fill="#FFFEFE"/>
<path d="M95.5753 54.5454V52.7272H109.735V54.5454H95.5753Z" fill="#FFFEFE"/>
<path d="M122.124 56.3636V54.5454H127.434L129.204 56.3636L130.973 58.1818L132.743 60L134.513 61.8182V63.6363H132.743L130.973 61.8182L129.204 60L127.434 58.1818L125.664 56.3636H122.124Z" fill="#FFFEFE"/>
<path d="M139.823 89.0909V74.5454H141.593V89.0909H139.823Z" fill="#FFFEFE"/>
<path d="M118.584 107.273V105.455H125.664L128.319 104.545L130.973 101.818V100H132.743V101.818L130.973 103.636L129.204 105.455L125.664 107.273H118.584Z" fill="#FFFEFE"/>
<path d="M100 109.091H106.195V107.273H100V109.091Z" fill="#FFFEFE"/>
<path d="M66.3717 132.727H63.7169V140L64.6018 144.545L65.4868 147.273L67.2567 149.091L69.0266 147.273L67.2567 144.545L66.3717 140V132.727Z" fill="#FFFEFE"/>
<path d="M77.8761 158.182L76.1062 160L81.416 163.636L84.9558 164.545H90.2655V161.818H84.9558L80.531 160L77.8761 158.182Z" fill="#FFFEFE"/>
<path d="M102.655 164.545V161.818H118.584V164.545H102.655Z" fill="#FFFEFE"/>
<path d="M129.204 164.545V161.818H137.168L141.593 163.636L145.133 165.455L143.363 167.273L139.823 165.455L136.283 164.545H129.204Z" fill="#FFFEFE"/>
<ellipse cx="79.646" cy="110.909" rx="21.2389" ry="21.8182" fill="#5A40F9"/>
<ellipse cx="79.646" cy="110.909" rx="10.6195" ry="10.9091" fill="#1D00A8"/>
<defs>
<filter id="filter0_i_2_36" x="0" y="0" width="203" height="203" filterUnits="userSpaceOnUse" color-interpolation-filters="sRGB">
<feFlood flood-opacity="0" result="BackgroundImageFix"/>
<feBlend mode="normal" in="SourceGraphic" in2="BackgroundImageFix" result="shape"/>
<feColorMatrix in="SourceAlpha" type="matrix" values="0 0 0 0 0 0 0 0 0 0 0 0 0 0 0 0 0 0 127 0" result="hardAlpha"/>
<feOffset dx="3" dy="3"/>
<feGaussianBlur stdDeviation="2"/>
<feComposite in2="hardAlpha" operator="arithmetic" k2="-1" k3="1"/>
<feColorMatrix type="matrix" values="0 0 0 0 0 0 0 0 0 0 0 0 0 0 0 0 0 0 0.25 0"/>
<feBlend mode="normal" in2="shape" result="effect1_innerShadow_2_36"/>
</filter>
<filter id="filter1_d_2_36" x="29.6283" y="14.5455" width="139.858" height="178" filterUnits="userSpaceOnUse" color-interpolation-filters="sRGB">
<feFlood flood-opacity="0" result="BackgroundImageFix"/>
<feColorMatrix in="SourceAlpha" type="matrix" values="0 0 0 0 0 0 0 0 0 0 0 0 0 0 0 0 0 0 127 0" result="hardAlpha"/>
<feOffset dy="4"/>
<feGaussianBlur stdDeviation="2"/>
<feComposite in2="hardAlpha" operator="out"/>
<feColorMatrix type="matrix" values="0 0 0 0 0 0 0 0 0 0 0 0 0 0 0 0 0 0 0.25 0"/>
<feBlend mode="normal" in2="BackgroundImageFix" result="effect1_dropShadow_2_36"/>
<feBlend mode="normal" in="SourceGraphic" in2="effect1_dropShadow_2_36" result="shape"/>
</filter>
</defs>
</svg>
