<svg width="123" height="119" viewBox="0 0 123 119" fill="none" xmlns="http://www.w3.org/2000/svg">
<path d="M0 60C0 48.9543 8.9543 40 20 40H83C94.0457 40 103 48.9543 103 60V81H0V60Z" fill="#0062FC"/>
<path d="M69 81H35L44 67.5C50.0922 59.3464 53.5934 59.194 60 67.5L69 81Z" fill="white"/>
<path d="M8 44L31 81H23L3 49.5C4.07321 47.3139 5.55579 45.7242 8 44Z" fill="#FFF9F9"/>
<path d="M63.5 40L93.5 81H103V80L73 40H63.5Z" fill="#FFF9F9"/>
<path d="M107 89V4L110 0H119L122.5 3.5C122.5 3.5 123 75.5 122.5 89C122 102.5 112.172 112.978 99.5 114L64.5 114.5C65.0621 117.932 64.282 118.992 60.5 119H41C36.1093 119.034 34.2161 118.265 34.5 113.5V102.5C34.984 96.5679 36.5434 95.002 41 94.5H60.5C63.2361 94.5329 64.1988 95.5787 64.5 100H99.5C104.902 98.0158 106.455 95.5246 107 89Z" fill="#0062FC"/>
</svg>
