<svg width="200" height="200" viewBox="0 0 200 200" fill="none" xmlns="http://www.w3.org/2000/svg">
<path d="M0 87.2263C0 76.1806 8.95431 67.2263 20 67.2263H147.859C158.904 67.2263 167.859 76.1806 167.859 87.2263V136.133H0V87.2263Z" fill="#0062FC"/>
<path d="M112.449 136.133H57.0396L71.7068 113.444C81.6353 99.741 87.3412 99.4848 97.782 113.444L112.449 136.133Z" fill="white"/>
<path d="M13.0376 73.9489L50.5207 136.133H37.4831L4.88916 83.1925C6.63817 79.5185 9.05432 76.8467 13.0376 73.9489Z" fill="#FFF9F9"/>
<path d="M103.486 67.2263L152.377 136.133H167.859V134.453L118.968 67.2263H103.486Z" fill="#FFF9F9"/>
<path d="M174.378 149.579V6.72263L179.267 0H193.934L199.638 5.8823C199.638 5.8823 200.453 126.89 199.638 149.579C198.823 172.267 182.806 189.878 162.155 191.595L105.115 192.435C106.032 198.203 104.76 199.985 98.5967 199.998H66.8176C58.8472 200.055 55.7619 198.763 56.2246 190.755V172.267C57.0133 162.298 59.5547 159.666 66.8176 158.822H98.5967C103.056 158.877 104.625 160.635 105.115 168.066H162.155C170.958 164.731 173.489 160.544 174.378 149.579Z" fill="#0062FC"/>
</svg>
