<svg width="933" height="1086" viewBox="0 0 933 1086" fill="none" xmlns="http://www.w3.org/2000/svg">
<path d="M199 258C93.3575 173.258 53.2339 114.926 0 0.5V1086H932.5V658V422.5C896.165 428.1 875.803 429.742 839.5 430.5C813.127 428.935 801.806 422.586 793.5 392.5C781.107 363.014 771.378 347.493 748 322C718.388 296.051 700.178 287.153 663.5 286C635.651 285.724 620.176 288.077 593 300C556.488 317.474 534.925 325.397 494.5 336C435.071 353.574 401.244 353.595 340 336C283.17 316.161 252.015 300.788 199 258Z" fill="#2F1099"/>
<path d="M76 168.5C45.9342 125.195 29.2562 96.5911 0 33.5L0.5 305C26.9449 334.492 41.7972 351.002 76 373C103.297 392.629 119.403 407.32 150.5 444.5C190.946 485.731 214.646 499.323 258 513.5C332.842 534.75 375.569 534.21 453 513.5C499.558 499.08 525.905 484.945 573.5 444.5C603.819 420.437 621.553 418.494 653.5 420C668.771 422.115 676.324 426.237 688 439C707.186 468.646 719.174 483.397 743 506C777.513 517.254 799.127 518.796 841.5 513.5C876.709 510.883 896.648 506.083 932.5 491.5V455.5C905.728 459.612 890.253 461.344 861.5 463C844.759 463.949 835.366 464.161 818.5 460C806.606 454.897 801.289 448.749 795 430C788.89 415.052 785.065 406.803 777 392.5C763.178 369.548 753.641 357.905 731 341C707.665 322.728 690.163 318.657 653.5 319C624.173 320.213 607.87 325.006 579 339.5C539.71 356.804 518.251 363.583 480.5 373C435.84 384.815 411.713 385.127 370 376.5C323.988 365.444 299.356 356.204 258 333C213.986 304.538 190.572 286.131 150.5 250C119.455 221.055 103.338 202.92 76 168.5Z" fill="#6A5AF9"/>
</svg>
