<svg width="253" height="508" viewBox="0 0 253 508" fill="none" xmlns="http://www.w3.org/2000/svg">
<path d="M167.5 64C165.5 39 162 27 148 0H245C252.085 27.1267 254.256 41.452 252 64C250.128 91.5073 246.848 105.582 236 122.5C223.068 146.096 214.867 158.258 198.5 178C182.051 195.057 179.334 198.972 165 217.5L133.5 257C123.557 270.612 118.455 278.519 110.5 294C105 304 103.102 312.585 100.5 329C99.5 343 99.4248 351.322 100 365.5C100.734 371.499 101.446 374.703 103.5 380C107.284 388.776 108.717 394.242 110 405C110.694 414.73 110.47 420.094 109 429.5C107.5 439 107 439.5 104 447C100.389 456.029 96.9524 460.41 91.5067 467.354L91 468C85.5078 474.647 82.1582 478.276 75.5 484.5C64.3424 494.084 57.8776 499.09 46 507.5H0C20.4087 496.026 31.1351 487.829 49 470C60 459 64.9745 450.573 71 429.5C73.1267 419.165 72.77 411.92 70 397C67.913 385.718 65.382 379.78 61.0303 369.571L61 369.5C58.8766 363.652 58.214 359.061 58 348.5C57.4728 334.403 57.9803 326.728 60.5 313.5C61.5 308.5 62.3682 304.405 64 299L64.1657 298.419C66.592 289.913 68.2412 284.132 73.5 274C80.8521 259.497 85.5719 251.225 96 236C110.351 213.291 124.802 199 136.5 177.5C148.198 156 155.497 143.648 161.5 122.5C167.503 101.352 169.5 89 167.5 64Z" fill="#2F1099"/>
<path d="M221 35.5C218.553 19.0632 215.512 11.6121 208.5 0H145.5C149.694 6.66161 151.816 10.57 155 18C158.671 26.0644 159.754 29.682 161 35.5C166.462 61 167 74 165 95.5C163.427 108.021 162.058 114.831 158.5 126.5L158.456 126.611C150.41 146.716 145.814 158.199 134.5 176.5C116.725 201.321 107.007 214.618 92 239C81.835 253.564 77.0194 262.93 68.5 280.5C63.4423 291.447 61 298.5 59 308C57 317.5 56.1452 322.458 56 331C55.8548 339.542 57.8689 362.812 58 363C60.0881 373.195 61.2966 377.525 63.5 383.5C71.2274 403.131 71.396 415.693 67 436.5C64.2753 446.001 62.2498 450.769 57.5 458C50.1183 468.014 45.3987 473.312 36.5 482.5C22.5446 493.668 14.5475 499.118 0 507.5H29C43.7949 497.716 51.5377 491.433 64.5 479C71.4042 471.633 75.1197 467.585 81.5 460.5C92.0448 444.501 95.1096 435.853 95.5 421C95.8293 409.681 95.2168 403.332 91.5 392C87.2677 380.021 85.1115 373.726 84.5 363C83.5604 348.732 83.7347 340.739 85.5 326.5C86.8709 319.188 87.4283 315.132 90 308C93.316 297.382 96.103 291.256 101 280C109.864 262.379 115.355 253.433 126 239L174 176C187.832 158.128 195.008 147.556 205.5 126.5C212.397 113.636 215.272 106.5 217.5 94C221.414 71.6134 222.072 58.7849 221 35.5Z" fill="#6A5AF9"/>
</svg>
