<svg width="133" height="153" viewBox="0 0 133 153" fill="none" xmlns="http://www.w3.org/2000/svg">
<path d="M50.2146 6.96368C51.2203 4.44923 54.7797 4.44923 55.7854 6.96369L97.2537 110.636C98.0419 112.606 96.5907 114.75 94.4683 114.75H11.5317C9.40935 114.75 7.95807 112.606 8.74629 110.636L50.2146 6.96368Z" fill="#E77CD8"/>
<path d="M88.2186 31.8823C89.2294 29.3811 92.7706 29.3811 93.7814 31.8823L125.706 110.876C126.503 112.848 125.052 115 122.925 115H59.0751C56.9481 115 55.4967 112.848 56.2937 110.876L88.2186 31.8823Z" fill="#E77CD8"/>
<path d="M38 64L31 55L33 50L38 58L53 35L65 55L72 48L74 52.5L65 61L53 41L38 64Z" fill="#FFECEC"/>
<path d="M77 59.5L71 74.5L60 101.5L54 115H50L56 101.5L67 74.5L74.5 58.5L75.5 56.5L77 59.5L78 57L91.5 68L103.5 56.5L105 59.5L91.5 72L77 59.5Z" fill="white"/>
</svg>
