<svg width="40" height="51" viewBox="0 0 40 51" fill="none" xmlns="http://www.w3.org/2000/svg">
<g filter="url(#filter0_i_2_47)">
<path d="M9.49999 20C10.9294 10.8465 13.5353 6.62183 20 0C26.7818 6.85623 29.3238 11.1481 30.5 20C31.2036 24.7517 31.1608 27.1323 30.5 31C28.8314 39.6182 26.6575 43.9396 20 50.5C13.9865 44.8536 11.5677 40.7089 9.49999 31C8.86957 26.8105 8.81715 24.4108 9.49999 20Z" fill="#FFB400"/>
</g>
<path d="M16 46.5L17 47.5L20 44.5L23 47.5L24 46.5L20 42L16 46.5Z" fill="#D9D9D9"/>
<ellipse cx="20" cy="25" rx="6" ry="9" fill="#D9D9D9"/>
<ellipse cx="20" cy="25" rx="5" ry="8" fill="#FFB400"/>
<path d="M33.5 8L36 5L40 9L37 11.5C35.1745 12.2436 34.1903 12.472 32.5 12.5C32.5379 10.6884 32.741 9.70036 33.5 8Z" fill="#FFB400"/>
<path d="M3.5 38.5C4.50373 38.0543 5.29552 37.9623 7 38C7.25912 39.8956 7.24981 40.7671 7 42L3.5 45.5L0 42L3.5 38.5Z" fill="#FFB400"/>
<defs>
<filter id="filter0_i_2_47" x="9.00732" y="0" width="22.0045" height="50.5" filterUnits="userSpaceOnUse" color-interpolation-filters="sRGB">
<feFlood flood-opacity="0" result="BackgroundImageFix"/>
<feBlend mode="normal" in="SourceGraphic" in2="BackgroundImageFix" result="shape"/>
<feColorMatrix in="SourceAlpha" type="matrix" values="0 0 0 0 0 0 0 0 0 0 0 0 0 0 0 0 0 0 127 0" result="hardAlpha"/>
<feOffset/>
<feGaussianBlur stdDeviation="2"/>
<feComposite in2="hardAlpha" operator="arithmetic" k2="-1" k3="1"/>
<feColorMatrix type="matrix" values="0 0 0 0 0 0 0 0 0 0 0 0 0 0 0 0 0 0 0.25 0"/>
<feBlend mode="normal" in2="shape" result="effect1_innerShadow_2_47"/>
</filter>
</defs>
</svg>
